# xmcd CD database file
#
# Track frame offsets:
#	150
#	20135
#	31965
#	48932
#	66930
#	80432
#	98007
#	115535
#	125132
#	140570
#	163000
#	179420
#
# Disc length: 2681 seconds
#
# Revision: 0
# Processed by: cddbd v1.5.1PL0 Copyright (c) Steve Scherf et al.
# Submitted via: CDex 1.51
#
DISCID=a20a770c
DTITLE=Olaf Jung - Sunset Cruise
DYEAR=1996
DGENRE=Instrumental Rock
TTITLE0=Sunset Cruise
TTITLE1=Madhouse
TTITLE2=Believe
TTITLE3=Blue Suede
TTITLE4=Fzunk
TTITLE5=Hit and Run
TTITLE6=Dreamer
TTITLE7=Etude #1
TTITLE8=Sequential Cut
TTITLE9=Dig This
TTITLE10=Yesterday
TTITLE11=Cool Mood
EXTD=YEAR: 1996
EXTT0=
EXTT1=
EXTT2=
EXTT3=
EXTT4=
EXTT5=
EXTT6=
EXTT7=
EXTT8=
EXTT9=
EXTT10=
EXTT11=
PLAYORDER=
